<svg height="512" viewBox="0 0 24 24" width="512" xmlns="http://www.w3.org/2000/svg"><path d="m12.6538 4.3681-1.9 3.3781a14.4564 14.4564 0 0 1 1.6342 1.202.5.5 0 1 1 -.648.7618 13.68 13.68 0 0 0 -1.4784-1.09l-5.98 10.63h12.19c-.0238-.4373-.0608-.8733-.1261-1.3017a.5.5 0 1 1 .9882-.15 14.5207 14.5207 0 0 1 .1383 1.4521h3.528a.75.75 0 0 1 0 1.5h-18a.75.75 0 0 1 -.6539-1.1181l9-16a.75.75 0 0 1 1.3077.7363zm3.2651 11.7019a.5.5 0 1 0 .957-.291 14.483 14.483 0 0 0 -.7426-1.9316.5.5 0 1 0 -.9053.4238 13.4933 13.4933 0 0 1 .6909 1.7988zm-2.0542-5.6738a.5.5 0 0 0 -.749.6621 13.6317 13.6317 0 0 1 1.1709 1.5317.5.5 0 1 0 .8359-.5489 14.562 14.562 0 0 0 -1.2578-1.6447z"/></svg>